{"title":"Beroe - Litex 08-08-2010","uid":5750021,"size":2138710016,"categoryP":"other","categoryS":"other","magnet":"?xt=urn:btih:8ec3b6a6e1ee201b4380056dd9e6a7d172d29c36&amp;dn=Beroe+-+Litex+08-08-2010&amp;tr=udp%3A%2F%2Ftracker.openbittorrent.com%3A80&amp;tr=udp%3A%2F%2Fopen.demonii.com%3A1337&amp;tr=udp%3A%2F%2Ftracker.coppersurfer.tk%3A6969&amp;tr=udp%3A%2F%2Fexodus.desync.com%3A6969","seeders":0,"leechers":0,"uploader":"spiralkinda","files":1,"time":1281359559,"description":"Format                           : AVI\nFormat/Info                      : Audio Video Interleave\nFormat profile                   : OpenDML\nFile size                        : 1.99 GiB\nDuration                         : 1h 36mn\nOverall bit rate                 : 2 941 Kbps\nWriting library                  : Boilsoft Joiner build 2411/release\n\nVideo\nID                               : 0\nFormat                           : MPEG-4 Visual\nFormat settings, BVOP            : Yes\nFormat settings, QPel            : No\nFormat settings, GMC             : No warppoints\nFormat settings, Matrix          : Default (H.263)\nMuxing mode                      : Packed bitstream\nCodec ID                         : DX50\nCodec ID/Hint                    : DivX 5\nDuration                         : 1h 36mn\nBit rate                         : 2 800 Kbps\nWidth                            : 720 pixels\nHeight                           : 404 pixels\nDisplay aspect ratio             : 16:9\nFrame rate                       : 25.000 fps\nResolution                       : 24 bits\nColorimetry                      : 4:2:0\nScan type                        : Progressive\nBits/(Pixel*Frame)               : 0.385\nStream size                      : 1.90 GiB (95%)\nWriting library                  : DivX 6.8.5 (UTC 2009-08-20)\n\nAudio\nID                               : 1\nFormat                           : AC-3\nFormat/Info                      : Audio Coding 3\nCodec ID                         : 2000\nDuration                         : 1h 36mn\nBit rate mode                    : Constant\nBit rate                         : 128 Kbps\nChannel(s)                       : 2 channels\nChannel positions                : L R\nSampling rate                    : 48.0 KHz\nStream size                      : 88.8 MiB (4%)\nAlignment                        : Aligned on interleaves\nInterleave, duration             : 40 ms (1.00 video frame)\nInterleave, preload duration     : 480 ms","torrent":{"xt":"urn:btih:8ec3b6a6e1ee201b4380056dd9e6a7d172d29c36","amp;dn":"Beroe+-+Litex+08-08-2010","amp;tr":["udp%3A%2F%2Ftracker.openbittorrent.com%3A80","udp%3A%2F%2Fopen.demonii.com%3A1337","udp%3A%2F%2Ftracker.coppersurfer.tk%3A6969","udp%3A%2F%2Fexodus.desync.com%3A6969"],"infoHash":"8ec3b6a6e1ee201b4380056dd9e6a7d172d29c36","infoHashBuffer":{"type":"Buffer","data":[142,195,182,166,225,238,32,27,67,128,5,109,217,230,167,209,114,210,156,54]},"announce":[],"urlList":[]}}